<svg width="180" height="50" viewBox="0 0 180 50" fill="none" xmlns="http://www.w3.org/2000/svg">
<path d="M15.6797 40.5488C16.1484 40.5488 16.6113 40.4609 17.0684 40.2852C17.5254 40.1211 17.9297 39.8398 18.2812 39.4414C18.6445 39.0547 18.9375 38.5449 19.1602 37.9121C19.3828 37.2793 19.4941 36.5059 19.4941 35.5918C19.4941 34.6074 19.248 33.6523 18.7559 32.7266C18.2754 31.8008 17.666 30.8926 16.9277 30.002C16.2012 29.0996 15.4102 28.209 14.5547 27.3301C13.7109 26.4395 12.9199 25.5371 12.1816 24.623C11.4551 23.6973 10.8457 22.748 10.3535 21.7754C9.87305 20.791 9.63281 19.7656 9.63281 18.6992C9.63281 17.6328 9.82617 16.6719 10.2129 15.8164C10.6113 14.9492 11.1445 14.2168 11.8125 13.6191C12.4922 13.0098 13.2773 12.541 14.168 12.2129C15.0703 11.8848 16.0312 11.7207 17.0508 11.7207C18.1406 11.7207 19.1074 11.8379 19.9512 12.0723C20.8066 12.2949 21.5273 12.6055 22.1133 13.0039C22.7109 13.3906 23.1621 13.8535 23.4668 14.3926C23.7715 14.9199 23.9238 15.4824 23.9238 16.0801C23.9238 16.3613 23.8828 16.6543 23.8008 16.959C23.7188 17.252 23.5898 17.5215 23.4141 17.7676C23.2383 18.0137 23.0156 18.2188 22.7461 18.3828C22.4766 18.5469 22.1602 18.6289 21.7969 18.6289C21.3633 18.6289 21.041 18.5 20.8301 18.2422C20.6309 17.9727 20.4785 17.6445 20.373 17.2578C20.2793 16.8711 20.1973 16.4492 20.127 15.9922C20.0566 15.5234 19.9453 15.0957 19.793 14.709C19.6406 14.3223 19.4121 14 19.1074 13.7422C18.8027 13.4727 18.3574 13.3379 17.7715 13.3379C17.4551 13.3379 17.1387 13.4082 16.8223 13.5488C16.5176 13.6895 16.2363 13.9062 15.9785 14.1992C15.7324 14.4805 15.5332 14.8438 15.3809 15.2891C15.2285 15.7344 15.1523 16.2617 15.1523 16.8711C15.1523 17.5742 15.2988 18.2598 15.5918 18.9277C15.8848 19.5957 16.2715 20.2578 16.752 20.9141C17.2324 21.5586 17.7773 22.209 18.3867 22.8652C19.0078 23.5098 19.6348 24.166 20.2676 24.834C20.9121 25.4902 21.5391 26.1699 22.1484 26.873C22.7695 27.5645 23.3203 28.2852 23.8008 29.0352C24.2812 29.7852 24.668 30.5703 24.9609 31.3906C25.2539 32.2109 25.4004 33.0723 25.4004 33.9746C25.4004 35.2988 25.1426 36.4824 24.627 37.5254C24.123 38.5566 23.4316 39.4238 22.5527 40.127C21.6855 40.8418 20.666 41.3867 19.4941 41.7617C18.3223 42.1367 17.0742 42.3242 15.75 42.3242C14.5547 42.3242 13.4941 42.1719 12.5684 41.8672C11.6543 41.5742 10.8809 41.1816 10.248 40.6895C9.61523 40.1973 9.13477 39.6348 8.80664 39.002C8.49023 38.3809 8.33203 37.7363 8.33203 37.0684C8.33203 36.7871 8.37305 36.4883 8.45508 36.1719C8.54883 35.8438 8.67773 35.5449 8.8418 35.2754C9.01758 35.0059 9.23438 34.7832 9.49219 34.6074C9.75 34.4199 10.0488 34.3262 10.3887 34.3262C10.7402 34.3262 11.0215 34.4141 11.2324 34.5898C11.4551 34.7656 11.6309 35 11.7598 35.293C11.8887 35.5859 11.9941 35.9199 12.0762 36.2949C12.1582 36.6699 12.2461 37.0508 12.3398 37.4375C12.4336 37.8242 12.5508 38.2051 12.6914 38.5801C12.832 38.9551 13.0254 39.2891 13.2715 39.582C13.5176 39.875 13.834 40.1094 14.2207 40.2852C14.6074 40.4609 15.0938 40.5488 15.6797 40.5488ZM36.6504 28.8945C36.6504 28.6016 36.5566 28.3789 36.3691 28.2266C36.1816 28.0742 35.9414 27.998 35.6484 27.998C35.2383 27.998 34.8457 28.0918 34.4707 28.2793C34.1074 28.4668 33.7852 28.7422 33.5039 29.1055C33.2227 29.4688 33 29.9199 32.8359 30.459C32.6719 30.9863 32.5898 31.6016 32.5898 32.3047C32.5898 32.9844 32.6367 33.5469 32.7305 33.9922C32.8359 34.4375 32.9707 34.7949 33.1348 35.0645C33.3105 35.3223 33.5098 35.5039 33.7324 35.6094C33.9551 35.7148 34.1895 35.7676 34.4355 35.7676C34.7402 35.7676 35.0273 35.6914 35.2969 35.5391C35.5664 35.375 35.8008 35.1699 36 34.9238C36.1992 34.6777 36.3574 34.4023 36.4746 34.0977C36.5918 33.793 36.6504 33.4883 36.6504 33.1836V28.8945ZM33.8555 21.1953C33.457 21.1953 33.0879 21.2422 32.748 21.3359C32.4082 21.4297 32.1152 21.5469 31.8691 21.6875C31.623 21.8281 31.4297 21.9863 31.2891 22.1621C31.1484 22.3262 31.0781 22.4844 31.0781 22.6367C31.0781 22.8125 31.166 22.9414 31.3418 23.0234C31.5293 23.0938 31.7344 23.1816 31.957 23.2871C32.1797 23.3809 32.3789 23.5215 32.5547 23.709C32.7422 23.8848 32.8359 24.1602 32.8359 24.5352C32.8359 24.7812 32.7832 25.0098 32.6777 25.2207C32.584 25.4199 32.4492 25.6016 32.2734 25.7656C32.1094 25.918 31.9102 26.041 31.6758 26.1348C31.4531 26.2168 31.2188 26.2578 30.9727 26.2578C30.3164 26.2578 29.7832 26.0352 29.373 25.5898C28.9746 25.1445 28.7754 24.5527 28.7754 23.8145C28.7754 23.0996 28.9629 22.4902 29.3379 21.9863C29.7129 21.4707 30.1992 21.0488 30.7969 20.7207C31.4062 20.3926 32.0918 20.1523 32.8535 20C33.6152 19.8359 34.377 19.7539 35.1387 19.7539C36.0527 19.7539 36.9258 19.8535 37.7578 20.0527C38.5898 20.252 39.3223 20.5684 39.9551 21.002C40.5996 21.4355 41.1094 21.9863 41.4844 22.6543C41.8711 23.3223 42.0645 24.1309 42.0645 25.0801V35.0117C42.0645 35.1172 42.0703 35.2344 42.082 35.3633C42.0938 35.4922 42.123 35.6094 42.1699 35.7148C42.2168 35.8203 42.2871 35.9082 42.3809 35.9785C42.4746 36.0488 42.6094 36.084 42.7852 36.084C42.9961 36.084 43.1895 36.0078 43.3652 35.8555C43.5527 35.6914 43.7168 35.5273 43.8574 35.3633L44.2969 35.7324C44.1211 35.9785 43.9102 36.248 43.6641 36.541C43.418 36.834 43.1191 37.1094 42.7676 37.3672C42.416 37.625 42.0059 37.8418 41.5371 38.0176C41.0684 38.1934 40.5352 38.2812 39.9375 38.2812C39.1992 38.2812 38.543 38.0645 37.9688 37.6309C37.3945 37.1855 37.0195 36.5059 36.8438 35.5918C36.4688 36.0957 36.0762 36.5176 35.666 36.8574C35.2676 37.1973 34.8574 37.4727 34.4355 37.6836C34.0137 37.8945 33.5859 38.0469 33.1523 38.1406C32.7305 38.2344 32.3027 38.2812 31.8691 38.2812C31.3066 38.2812 30.7617 38.1934 30.2344 38.0176C29.707 37.8418 29.2324 37.5664 28.8105 37.1914C28.4004 36.8047 28.0664 36.3066 27.8086 35.6973C27.5625 35.0879 27.4395 34.3438 27.4395 33.4648C27.4395 32.3984 27.6504 31.5254 28.0723 30.8457C28.4941 30.166 29.0449 29.5977 29.7246 29.1406C30.416 28.6719 31.1953 28.2734 32.0625 27.9453C32.9414 27.6172 33.8379 27.2715 34.752 26.9082C35.4316 26.6387 35.9238 26.2402 36.2285 25.7129C36.5449 25.1738 36.7031 24.623 36.7031 24.0605C36.7031 23.1934 36.4453 22.502 35.9297 21.9863C35.4258 21.459 34.7344 21.1953 33.8555 21.1953ZM52.2773 23.4629C52.7227 22.7832 53.1973 22.168 53.7012 21.6172C53.9121 21.3828 54.1406 21.1543 54.3867 20.9316C54.6328 20.709 54.8848 20.5098 55.1426 20.334C55.4121 20.1582 55.6875 20.0176 55.9688 19.9121C56.25 19.8066 56.5312 19.7539 56.8125 19.7539C57.4102 19.7539 57.8789 19.9355 58.2188 20.2988C58.5586 20.6504 58.7285 21.1484 58.7285 21.793C58.7285 22.1914 58.6934 22.5781 58.623 22.9531C58.5645 23.3164 58.4414 23.7617 58.2539 24.2891H57.7617C57.6914 23.9258 57.5273 23.627 57.2695 23.3926C57.0117 23.1465 56.6367 23.0234 56.1445 23.0234C55.7812 23.0234 55.4238 23.0938 55.0723 23.2344C54.7207 23.3633 54.375 23.5273 54.0352 23.7266C53.707 23.9258 53.3906 24.1426 53.0859 24.377C52.793 24.6113 52.5234 24.834 52.2773 25.0449V36.4531C52.2773 36.6055 52.2539 36.7871 52.207 36.998C52.1602 37.209 52.043 37.4082 51.8555 37.5957C51.6797 37.7832 51.4102 37.9414 51.0469 38.0703C50.6953 38.2109 50.209 38.2812 49.5879 38.2812C48.9668 38.2812 48.4746 38.2051 48.1113 38.0527C47.7598 37.9121 47.4902 37.7422 47.3027 37.543C47.1152 37.3438 46.998 37.1387 46.9512 36.9277C46.9043 36.7168 46.8809 36.5469 46.8809 36.418V22.8477C46.8809 22.5078 46.7988 22.2148 46.6348 21.9688C46.4824 21.7109 46.2188 21.582 45.8438 21.582C45.6445 21.582 45.4746 21.6172 45.334 21.6875C45.1934 21.7578 45.041 21.8574 44.877 21.9863L44.5078 21.5469C44.7773 21.3242 45.0762 21.1074 45.4043 20.8965C45.7441 20.6738 46.1074 20.4805 46.4941 20.3164C46.8809 20.1523 47.2969 20.0176 47.7422 19.9121C48.1875 19.8066 48.6562 19.7539 49.1484 19.7539C49.6523 19.7539 50.0801 19.8242 50.4316 19.9648C50.7949 20.0938 51.0879 20.2695 51.3105 20.4922C51.5449 20.7031 51.7266 20.9434 51.8555 21.2129C51.9844 21.4824 52.0781 21.7578 52.1367 22.0391C52.207 22.3086 52.248 22.5723 52.2598 22.8301C52.2715 23.0762 52.2773 23.2871 52.2773 23.4629ZM68.5371 28.8945C68.5371 28.6016 68.4434 28.3789 68.2559 28.2266C68.0684 28.0742 67.8281 27.998 67.5352 27.998C67.125 27.998 66.7324 28.0918 66.3574 28.2793C65.9941 28.4668 65.6719 28.7422 65.3906 29.1055C65.1094 29.4688 64.8867 29.9199 64.7227 30.459C64.5586 30.9863 64.4766 31.6016 64.4766 32.3047C64.4766 32.9844 64.5234 33.5469 64.6172 33.9922C64.7227 34.4375 64.8574 34.7949 65.0215 35.0645C65.1973 35.3223 65.3965 35.5039 65.6191 35.6094C65.8418 35.7148 66.0762 35.7676 66.3223 35.7676C66.627 35.7676 66.9141 35.6914 67.1836 35.5391C67.4531 35.375 67.6875 35.1699 67.8867 34.9238C68.0859 34.6777 68.2441 34.4023 68.3613 34.0977C68.4785 33.793 68.5371 33.4883 68.5371 33.1836V28.8945ZM65.7422 21.1953C65.3438 21.1953 64.9746 21.2422 64.6348 21.3359C64.2949 21.4297 64.002 21.5469 63.7559 21.6875C63.5098 21.8281 63.3164 21.9863 63.1758 22.1621C63.0352 22.3262 62.9648 22.4844 62.9648 22.6367C62.9648 22.8125 63.0527 22.9414 63.2285 23.0234C63.416 23.0938 63.6211 23.1816 63.8438 23.2871C64.0664 23.3809 64.2656 23.5215 64.4414 23.709C64.6289 23.8848 64.7227 24.1602 64.7227 24.5352C64.7227 24.7812 64.6699 25.0098 64.5645 25.2207C64.4707 25.4199 64.3359 25.6016 64.1602 25.7656C63.9961 25.918 63.7969 26.041 63.5625 26.1348C63.3398 26.2168 63.1055 26.2578 62.8594 26.2578C62.2031 26.2578 61.6699 26.0352 61.2598 25.5898C60.8613 25.1445 60.6621 24.5527 60.6621 23.8145C60.6621 23.0996 60.8496 22.4902 61.2246 21.9863C61.5996 21.4707 62.0859 21.0488 62.6836 20.7207C63.293 20.3926 63.9785 20.1523 64.7402 20C65.502 19.8359 66.2637 19.7539 67.0254 19.7539C67.9395 19.7539 68.8125 19.8535 69.6445 20.0527C70.4766 20.252 71.209 20.5684 71.8418 21.002C72.4863 21.4355 72.9961 21.9863 73.3711 22.6543C73.7578 23.3223 73.9512 24.1309 73.9512 25.0801V35.0117C73.9512 35.1172 73.957 35.2344 73.9688 35.3633C73.9805 35.4922 74.0098 35.6094 74.0566 35.7148C74.1035 35.8203 74.1738 35.9082 74.2676 35.9785C74.3613 36.0488 74.4961 36.084 74.6719 36.084C74.8828 36.084 75.0762 36.0078 75.252 35.8555C75.4395 35.6914 75.6035 35.5273 75.7441 35.3633L76.1836 35.7324C76.0078 35.9785 75.7969 36.248 75.5508 36.541C75.3047 36.834 75.0059 37.1094 74.6543 37.3672C74.3027 37.625 73.8926 37.8418 73.4238 38.0176C72.9551 38.1934 72.4219 38.2812 71.8242 38.2812C71.0859 38.2812 70.4297 38.0645 69.8555 37.6309C69.2812 37.1855 68.9062 36.5059 68.7305 35.5918C68.3555 36.0957 67.9629 36.5176 67.5527 36.8574C67.1543 37.1973 66.7441 37.4727 66.3223 37.6836C65.9004 37.8945 65.4727 38.0469 65.0391 38.1406C64.6172 38.2344 64.1895 38.2812 63.7559 38.2812C63.1934 38.2812 62.6484 38.1934 62.1211 38.0176C61.5938 37.8418 61.1191 37.5664 60.6973 37.1914C60.2871 36.8047 59.9531 36.3066 59.6953 35.6973C59.4492 35.0879 59.3262 34.3438 59.3262 33.4648C59.3262 32.3984 59.5371 31.5254 59.959 30.8457C60.3809 30.166 60.9316 29.5977 61.6113 29.1406C62.3027 28.6719 63.082 28.2734 63.9492 27.9453C64.8281 27.6172 65.7246 27.2715 66.6387 26.9082C67.3184 26.6387 67.8105 26.2402 68.1152 25.7129C68.4316 25.1738 68.5898 24.623 68.5898 24.0605C68.5898 23.1934 68.332 22.502 67.8164 21.9863C67.3125 21.459 66.6211 21.1953 65.7422 21.1953ZM88.8926 29.2461C88.8926 27.7695 88.8223 26.5918 88.6816 25.7129C88.5527 24.8223 88.377 24.1484 88.1543 23.6914C87.9316 23.2227 87.6855 22.918 87.416 22.7773C87.1465 22.625 86.8711 22.5488 86.5898 22.5488C86.25 22.5488 85.9453 22.6426 85.6758 22.8301C85.418 23.0059 85.1895 23.2109 84.9902 23.4453C84.8027 23.6797 84.6387 23.9141 84.498 24.1484C84.3691 24.3828 84.2578 24.5586 84.1641 24.6758V36.418C84.1641 36.5703 84.1406 36.7578 84.0938 36.9805C84.0469 37.1914 83.9297 37.3965 83.7422 37.5957C83.5664 37.7832 83.2969 37.9414 82.9336 38.0703C82.582 38.2109 82.0957 38.2812 81.4746 38.2812C80.8535 38.2812 80.3613 38.2051 79.998 38.0527C79.6465 37.9121 79.377 37.7422 79.1895 37.543C79.002 37.3438 78.8848 37.1387 78.8379 36.9277C78.791 36.7168 78.7676 36.5469 78.7676 36.418V22.8477C78.7676 22.5078 78.6855 22.2148 78.5215 21.9688C78.3691 21.7109 78.1055 21.582 77.7305 21.582C77.5312 21.582 77.3613 21.6172 77.2207 21.6875C77.0801 21.7578 76.9277 21.8574 76.7637 21.9863L76.3945 21.5469C76.6641 21.3242 76.9629 21.1074 77.291 20.8965C77.6309 20.6738 77.9941 20.4805 78.3809 20.3164C78.7676 20.1523 79.1836 20.0176 79.6289 19.9121C80.0742 19.8066 80.543 19.7539 81.0352 19.7539C81.7969 19.7539 82.3887 19.8828 82.8105 20.1406C83.2324 20.3867 83.543 20.6855 83.7422 21.0371C83.9414 21.3887 84.0586 21.7578 84.0938 22.1445C84.1406 22.5195 84.1641 22.8359 84.1641 23.0938C84.5977 22.4727 85.0898 21.916 85.6406 21.4238C85.8633 21.2129 86.1094 21.0078 86.3789 20.8086C86.6602 20.6094 86.9531 20.4336 87.2578 20.2812C87.5742 20.1172 87.9023 19.9883 88.2422 19.8945C88.5938 19.8008 88.9512 19.7539 89.3145 19.7539C90.1113 19.7539 90.8145 19.9062 91.4238 20.2109C92.0449 20.5156 92.5664 21.0254 92.9883 21.7402C93.4102 22.4551 93.7324 23.4043 93.9551 24.5879C94.1777 25.7598 94.2891 27.2188 94.2891 28.9648C94.2891 30.6641 94.1367 32.1406 93.832 33.3945C93.5273 34.6484 93.1289 35.7148 92.6367 36.5938C92.1445 37.4727 91.5879 38.1875 90.9668 38.7383C90.3457 39.3008 89.7188 39.7402 89.0859 40.0566C88.4531 40.373 87.8438 40.5898 87.2578 40.707C86.6836 40.8359 86.1855 40.9062 85.7637 40.918L85.5703 40.1973C85.9219 40.1152 86.2441 39.9863 86.5371 39.8105C86.8418 39.6348 87.1172 39.377 87.3633 39.0371C87.6094 38.6973 87.8262 38.2695 88.0137 37.7539C88.2012 37.2266 88.3594 36.5703 88.4883 35.7852C88.6289 35 88.7285 34.0742 88.7871 33.0078C88.8574 31.9297 88.8926 30.6758 88.8926 29.2461ZM117 38.2812C116.016 38.2812 115.289 38.0762 114.82 37.666C114.352 37.2559 114.117 36.5996 114.117 35.6973V13.373C113.742 13.4082 113.273 13.4785 112.711 13.584C112.16 13.6777 111.58 13.8184 110.971 14.0059C110.361 14.1934 109.752 14.4219 109.143 14.6914C108.533 14.9492 107.988 15.2539 107.508 15.6055C107.027 15.9453 106.635 16.332 106.33 16.7656C106.025 17.1992 105.873 17.6797 105.873 18.207C105.873 18.582 105.92 18.8809 106.014 19.1035C106.119 19.3262 106.236 19.4961 106.365 19.6133C106.494 19.7188 106.623 19.7891 106.752 19.8242C106.893 19.8477 106.992 19.8594 107.051 19.8594C107.344 19.8594 107.584 19.8125 107.771 19.7188C107.959 19.6133 108.129 19.5078 108.281 19.4023C108.434 19.2852 108.574 19.1797 108.703 19.0859C108.844 18.9805 109.002 18.9277 109.178 18.9277C109.318 18.9277 109.465 18.9629 109.617 19.0332C109.781 19.0918 109.928 19.1914 110.057 19.332C110.197 19.4727 110.314 19.6602 110.408 19.8945C110.502 20.1172 110.549 20.3926 110.549 20.7207C110.549 21.1895 110.455 21.5938 110.268 21.9336C110.092 22.2734 109.857 22.5605 109.564 22.7949C109.283 23.0176 108.955 23.1875 108.58 23.3047C108.217 23.4102 107.854 23.4629 107.49 23.4629C106.928 23.4629 106.418 23.3691 105.961 23.1816C105.516 22.9824 105.135 22.7129 104.818 22.373C104.502 22.0332 104.262 21.6348 104.098 21.1777C103.934 20.7207 103.852 20.2344 103.852 19.7188C103.852 18.3477 104.227 17.1641 104.977 16.168C105.738 15.1602 106.775 14.3281 108.088 13.6719C109.4 13.0039 110.93 12.5117 112.676 12.1953C114.422 11.8789 116.291 11.7207 118.283 11.7207C119.232 11.7207 120.158 11.7324 121.061 11.7559C121.963 11.7676 122.783 11.791 123.521 11.8262C124.271 11.8613 124.916 11.9023 125.455 11.9492C125.994 11.9961 126.387 12.0488 126.633 12.1074C126.867 12.166 127.055 12.2539 127.195 12.3711C127.336 12.4766 127.441 12.5996 127.512 12.7402C127.582 12.8809 127.629 13.0332 127.652 13.1973C127.676 13.3496 127.688 13.5078 127.688 13.6719C127.688 13.8008 127.67 13.9531 127.635 14.1289C127.6 14.293 127.547 14.4512 127.477 14.6035C127.406 14.7559 127.318 14.8848 127.213 14.9902C127.107 15.0957 126.979 15.1484 126.826 15.1484C126.732 15.1484 126.633 15.1074 126.527 15.0254C126.434 14.9434 126.299 14.8438 126.123 14.7266C125.947 14.6094 125.707 14.4746 125.402 14.3223C125.109 14.1699 124.717 14.0293 124.225 13.9004C123.744 13.7715 123.146 13.6543 122.432 13.5488C121.729 13.4434 120.873 13.373 119.865 13.3379V35.6973C119.865 36.5996 119.631 37.2559 119.162 37.666C118.693 38.0762 117.973 38.2812 117 38.2812ZM132.434 23.0938C132.867 22.4727 133.359 21.916 133.91 21.4238C134.133 21.2129 134.379 21.0078 134.648 20.8086C134.93 20.6094 135.223 20.4336 135.527 20.2812C135.844 20.1172 136.172 19.9883 136.512 19.8945C136.863 19.8008 137.221 19.7539 137.584 19.7539C138.369 19.7539 139.072 19.9062 139.693 20.2109C140.314 20.5156 140.836 21.0254 141.258 21.7402C141.68 22.4551 142.002 23.4043 142.225 24.5879C142.447 25.7598 142.559 27.2188 142.559 28.9648C142.559 30.6641 142.406 32.1406 142.102 33.3945C141.797 34.6484 141.398 35.7148 140.906 36.5938C140.414 37.4727 139.857 38.1875 139.236 38.7383C138.615 39.3008 137.988 39.7402 137.355 40.0566C136.723 40.373 136.113 40.5898 135.527 40.707C134.941 40.8359 134.438 40.9062 134.016 40.918L133.84 40.1973C134.367 40.0684 134.836 39.8281 135.246 39.4766C135.656 39.125 136.002 38.5508 136.283 37.7539C136.564 36.9453 136.775 35.8613 136.916 34.502C137.068 33.1426 137.145 31.3906 137.145 29.2461C137.145 27.7695 137.074 26.5918 136.934 25.7129C136.805 24.8223 136.629 24.1484 136.406 23.6914C136.195 23.2227 135.949 22.918 135.668 22.7773C135.398 22.625 135.123 22.5488 134.842 22.5488C134.502 22.5488 134.203 22.6426 133.945 22.8301C133.688 23.0059 133.459 23.2109 133.26 23.4453C133.072 23.6797 132.908 23.9141 132.768 24.1484C132.639 24.3828 132.527 24.5586 132.434 24.6758V36.418C132.434 36.5703 132.41 36.7578 132.363 36.9805C132.316 37.1914 132.199 37.3965 132.012 37.5957C131.836 37.7832 131.566 37.9414 131.203 38.0703C130.852 38.2109 130.365 38.2812 129.744 38.2812C129.123 38.2812 128.631 38.2051 128.268 38.0527C127.904 37.9121 127.629 37.7422 127.441 37.543C127.266 37.3438 127.154 37.1387 127.107 36.9277C127.061 36.7168 127.037 36.5469 127.037 36.418V13.7422C127.037 13.4023 126.955 13.1094 126.791 12.8633C126.639 12.6055 126.375 12.4766 126 12.4766C125.801 12.4766 125.625 12.5117 125.473 12.582C125.332 12.6406 125.18 12.7344 125.016 12.8633L124.664 12.4414C124.934 12.2187 125.232 12.002 125.561 11.791C125.889 11.5684 126.246 11.375 126.633 11.2109C127.031 11.0469 127.453 10.9121 127.898 10.8066C128.344 10.7012 128.812 10.6484 129.305 10.6484C130.066 10.6484 130.658 10.7539 131.08 10.9648C131.502 11.1641 131.812 11.416 132.012 11.7207C132.211 12.0137 132.328 12.3301 132.363 12.6699C132.41 12.998 132.434 13.291 132.434 13.5488V23.0938ZM154.107 28.8945C154.107 28.6016 154.014 28.3789 153.826 28.2266C153.639 28.0742 153.398 27.998 153.105 27.998C152.695 27.998 152.303 28.0918 151.928 28.2793C151.564 28.4668 151.242 28.7422 150.961 29.1055C150.68 29.4688 150.457 29.9199 150.293 30.459C150.129 30.9863 150.047 31.6016 150.047 32.3047C150.047 32.9844 150.094 33.5469 150.188 33.9922C150.293 34.4375 150.428 34.7949 150.592 35.0645C150.768 35.3223 150.967 35.5039 151.189 35.6094C151.412 35.7148 151.646 35.7676 151.893 35.7676C152.197 35.7676 152.484 35.6914 152.754 35.5391C153.023 35.375 153.258 35.1699 153.457 34.9238C153.656 34.6777 153.814 34.4023 153.932 34.0977C154.049 33.793 154.107 33.4883 154.107 33.1836V28.8945ZM151.312 21.1953C150.914 21.1953 150.545 21.2422 150.205 21.3359C149.865 21.4297 149.572 21.5469 149.326 21.6875C149.08 21.8281 148.887 21.9863 148.746 22.1621C148.605 22.3262 148.535 22.4844 148.535 22.6367C148.535 22.8125 148.623 22.9414 148.799 23.0234C148.986 23.0938 149.191 23.1816 149.414 23.2871C149.637 23.3809 149.836 23.5215 150.012 23.709C150.199 23.8848 150.293 24.1602 150.293 24.5352C150.293 24.7812 150.24 25.0098 150.135 25.2207C150.041 25.4199 149.906 25.6016 149.73 25.7656C149.566 25.918 149.367 26.041 149.133 26.1348C148.91 26.2168 148.676 26.2578 148.43 26.2578C147.773 26.2578 147.24 26.0352 146.83 25.5898C146.432 25.1445 146.232 24.5527 146.232 23.8145C146.232 23.0996 146.42 22.4902 146.795 21.9863C147.17 21.4707 147.656 21.0488 148.254 20.7207C148.863 20.3926 149.549 20.1523 150.311 20C151.072 19.8359 151.834 19.7539 152.596 19.7539C153.51 19.7539 154.383 19.8535 155.215 20.0527C156.047 20.252 156.779 20.5684 157.412 21.002C158.057 21.4355 158.566 21.9863 158.941 22.6543C159.328 23.3223 159.521 24.1309 159.521 25.0801V35.0117C159.521 35.1172 159.527 35.2344 159.539 35.3633C159.551 35.4922 159.58 35.6094 159.627 35.7148C159.674 35.8203 159.744 35.9082 159.838 35.9785C159.932 36.0488 160.066 36.084 160.242 36.084C160.453 36.084 160.646 36.0078 160.822 35.8555C161.01 35.6914 161.174 35.5273 161.314 35.3633L161.754 35.7324C161.578 35.9785 161.367 36.248 161.121 36.541C160.875 36.834 160.576 37.1094 160.225 37.3672C159.873 37.625 159.463 37.8418 158.994 38.0176C158.525 38.1934 157.992 38.2812 157.395 38.2812C156.656 38.2812 156 38.0645 155.426 37.6309C154.852 37.1855 154.477 36.5059 154.301 35.5918C153.926 36.0957 153.533 36.5176 153.123 36.8574C152.725 37.1973 152.314 37.4727 151.893 37.6836C151.471 37.8945 151.043 38.0469 150.609 38.1406C150.188 38.2344 149.76 38.2812 149.326 38.2812C148.764 38.2812 148.219 38.1934 147.691 38.0176C147.164 37.8418 146.689 37.5664 146.268 37.1914C145.857 36.8047 145.523 36.3066 145.266 35.6973C145.02 35.0879 144.896 34.3438 144.896 33.4648C144.896 32.3984 145.107 31.5254 145.529 30.8457C145.951 30.166 146.502 29.5977 147.182 29.1406C147.873 28.6719 148.652 28.2734 149.52 27.9453C150.398 27.6172 151.295 27.2715 152.209 26.9082C152.889 26.6387 153.381 26.2402 153.686 25.7129C154.002 25.1738 154.16 24.623 154.16 24.0605C154.16 23.1934 153.902 22.502 153.387 21.9863C152.883 21.459 152.191 21.1953 151.312 21.1953ZM169.734 36.418C169.734 36.5703 169.705 36.7578 169.646 36.9805C169.6 37.1914 169.477 37.3965 169.277 37.5957C169.09 37.7832 168.814 37.9414 168.451 38.0703C168.088 38.2109 167.596 38.2812 166.975 38.2812C166.354 38.2812 165.867 38.2051 165.516 38.0527C165.164 37.9121 164.9 37.7422 164.725 37.543C164.549 37.3438 164.438 37.1387 164.391 36.9277C164.355 36.7168 164.338 36.5469 164.338 36.418V22.8477C164.338 22.5078 164.256 22.2148 164.092 21.9688C163.939 21.7109 163.676 21.582 163.301 21.582C163.102 21.582 162.932 21.6172 162.791 21.6875C162.65 21.7578 162.498 21.8574 162.334 21.9863L161.965 21.5469C162.234 21.3242 162.533 21.1074 162.861 20.8965C163.201 20.6738 163.564 20.4805 163.951 20.3164C164.338 20.1523 164.754 20.0176 165.199 19.9121C165.645 19.8066 166.113 19.7539 166.605 19.7539C167.367 19.7539 167.959 19.8594 168.381 20.0703C168.803 20.2695 169.113 20.5215 169.312 20.8262C169.512 21.1191 169.629 21.4355 169.664 21.7754C169.711 22.1152 169.734 22.4141 169.734 22.6719V36.418ZM163.793 15.7461C163.793 15.418 163.863 15.1074 164.004 14.8145C164.156 14.5098 164.361 14.2461 164.619 14.0234C164.889 13.8008 165.193 13.625 165.533 13.4961C165.885 13.3672 166.266 13.3027 166.676 13.3027C167.074 13.3027 167.443 13.3672 167.783 13.4961C168.135 13.625 168.439 13.8008 168.697 14.0234C168.955 14.2461 169.154 14.5098 169.295 14.8145C169.447 15.1074 169.523 15.418 169.523 15.7461C169.523 16.0859 169.447 16.4023 169.295 16.6953C169.154 16.9883 168.955 17.2461 168.697 17.4688C168.439 17.6797 168.135 17.8496 167.783 17.9785C167.443 18.1074 167.074 18.1719 166.676 18.1719C166.266 18.1719 165.885 18.1074 165.533 17.9785C165.193 17.8496 164.889 17.6797 164.619 17.4688C164.361 17.2461 164.156 16.9883 164.004 16.6953C163.863 16.4023 163.793 16.0859 163.793 15.7461Z" fill="#5E1EA9"/>
</svg>
